<svg width="128" height="128" viewBox="0 0 128 128" fill="none" xmlns="http://www.w3.org/2000/svg">
<path d="M72.7838 5.65752C73.1949 2.92687 75.7482 1.02693 78.4385 1.64989C89.766 4.27289 100.199 9.94157 108.585 18.0855C116.972 26.2293 122.945 36.4911 125.899 47.7367C126.601 50.4075 124.777 53.0155 122.059 53.5066L117.276 54.3712C114.558 54.8623 111.982 53.0472 111.217 50.3937C108.856 42.1983 104.392 34.7287 98.2323 28.7472C92.0724 22.7657 84.475 18.5233 76.2137 16.4034C73.539 15.7171 71.6489 13.1954 72.0601 10.4647L72.7838 5.65752Z" fill="url(#paint0_linear_1_18)"/>
<path d="M123 64C125.761 64 128.02 66.2421 127.805 68.9951C126.952 79.8931 123.318 90.4213 117.214 99.5565C110.182 110.081 100.186 118.284 88.4917 123.128C76.7973 127.972 63.929 129.24 51.5142 126.77C39.0994 124.301 27.6957 118.205 18.7452 109.255C9.79461 100.304 3.6992 88.9006 1.22974 76.4858C-1.23971 64.071 0.0277015 51.2027 4.87171 39.5083C9.71572 27.8138 17.9188 17.8184 28.4435 10.7859C37.5787 4.68199 48.1069 1.04828 59.0049 0.195189C61.7579 -0.0203148 64 2.23858 64 5L64 9.86136C64 12.6228 61.7556 14.835 59.0085 15.1155C51.0537 15.9277 43.3903 18.6724 36.7 23.1427C28.6192 28.5421 22.321 36.2165 18.6018 45.1955C14.8826 54.1744 13.9095 64.0545 15.8055 73.5865C17.7016 83.1184 22.3816 91.8741 29.2537 98.7463C36.1259 105.618 44.8816 110.298 54.4135 112.194C63.9455 114.09 73.8256 113.117 82.8045 109.398C91.7835 105.679 99.4579 99.3808 104.857 91.3C109.328 84.6097 112.072 76.9463 112.884 68.9915C113.165 66.2444 115.377 64 118.139 64H123Z" fill="url(#paint1_linear_1_18)"/>
<path d="M68 43.1424C68 36.1933 77.9407 35.0056 79.5779 41.759V41.759C80.1079 43.9452 81.8758 45.6441 84.074 46.1213V46.1213C92.2107 47.8879 91.5506 60 83.2244 60H75.0441C71.1538 60 68 56.8462 68 52.9559V43.1424Z" fill="#626EF4"/>
<path d="M61 43.1424C61 36.1933 51.0593 35.0056 49.4221 41.759V41.759C48.8921 43.9452 47.1242 45.6441 44.926 46.1213V46.1213C36.7893 47.8879 37.4494 60 45.7756 60H53.9559C57.8462 60 61 56.8462 61 52.9559V43.1424Z" fill="#626EF4"/>
<path d="M61 84.8576C61 91.8067 51.0593 92.9944 49.4221 86.241V86.241C48.8921 84.0548 47.1242 82.3559 44.926 81.8787V81.8787C36.7893 80.1121 37.4494 68 45.7756 68H53.9559C57.8462 68 61 71.1538 61 75.0441V84.8576Z" fill="#626EF4"/>
<path d="M68 84.8576C68 91.8067 77.9407 92.9944 79.5779 86.241V86.241C80.1079 84.0548 81.8758 82.3559 84.074 81.8787V81.8787C92.2107 80.1121 91.5506 68 83.2244 68H75.0441C71.1538 68 68 71.1538 68 75.0441V84.8576Z" fill="#626EF4"/>
<defs>
<linearGradient id="paint0_linear_1_18" x1="64" y1="1.90735e-06" x2="128" y2="128" gradientUnits="userSpaceOnUse">
<stop stop-color="#626EF4"/>
<stop offset="1" stop-color="#3E4DED"/>
</linearGradient>
<linearGradient id="paint1_linear_1_18" x1="0" y1="0" x2="128" y2="128" gradientUnits="userSpaceOnUse">
<stop stop-color="#626EF4"/>
<stop offset="1" stop-color="#3E4DED"/>
</linearGradient>
</defs>
</svg>
