<svg width="90" height="105" viewBox="0 0 90 105" fill="none" xmlns="http://www.w3.org/2000/svg">
<path d="M18.3309 92.8702C17.3419 92.9723 16.4282 92.3324 16.1858 91.3682L12.331 76.0288C11.8796 74.2329 13.9009 72.8409 15.4178 73.903L35.0055 87.6185C36.5223 88.6806 35.9056 91.0561 34.0637 91.2462L18.3309 92.8702Z" fill="#626EF4"/>
<path fill-rule="evenodd" clip-rule="evenodd" d="M59.056 8.01767C60.6399 5.75564 63.7577 5.20591 66.0197 6.78979L80.7644 17.1142C83.0264 18.698 83.5762 21.8158 81.9923 24.0778L35.5326 90.4291C34.899 91.3339 33.652 91.5538 32.7471 90.9203L13.0875 77.1544C12.1827 76.5209 11.9628 75.2738 12.5963 74.369L59.056 8.01767ZM54.0553 32.5939L59.7894 36.609L30.537 78.3857L30.3879 78.2814C30.5088 78.366 30.4995 78.548 30.3705 78.6199L23.7284 82.3211C23.5825 82.4024 23.407 82.2796 23.4335 82.1147L24.6398 74.6072C24.6632 74.4614 24.831 74.3904 24.952 74.4751L24.8029 74.3707L54.0553 32.5939Z" fill="#626EF4"/>
</svg>
