<svg width="549" height="143" viewBox="0 0 549 143" fill="none" xmlns="http://www.w3.org/2000/svg">
<path d="M72.7838 20.6575C73.1949 17.9269 75.7482 16.0269 78.4385 16.6499C89.766 19.2729 100.199 24.9416 108.585 33.0855C116.972 41.2293 122.945 51.4911 125.899 62.7367C126.601 65.4075 124.777 68.0155 122.059 68.5066L117.276 69.3712C114.558 69.8623 111.982 68.0472 111.217 65.3937C108.856 57.1983 104.392 49.7287 98.2323 43.7472C92.0724 37.7657 84.475 33.5233 76.2137 31.4034C73.539 30.7171 71.6489 28.1954 72.0601 25.4647L72.7838 20.6575Z" fill="url(#paint0_linear_9_9)"/>
<path d="M123 79C125.761 79 128.02 81.2421 127.805 83.9951C126.952 94.8931 123.318 105.421 117.214 114.556C110.182 125.081 100.186 133.284 88.4917 138.128C76.7973 142.972 63.929 144.24 51.5142 141.77C39.0994 139.301 27.6957 133.205 18.7452 124.255C9.79461 115.304 3.6992 103.901 1.22974 91.4858C-1.23971 79.071 0.0277015 66.2027 4.87171 54.5083C9.71572 42.8138 17.9188 32.8184 28.4435 25.7859C37.5787 19.682 48.1069 16.0483 59.0049 15.1952C61.7579 14.9797 64 17.2386 64 20L64 24.8614C64 27.6228 61.7556 29.835 59.0085 30.1155C51.0537 30.9277 43.3903 33.6724 36.7 38.1427C28.6192 43.5421 22.321 51.2165 18.6018 60.1955C14.8826 69.1744 13.9095 79.0545 15.8055 88.5865C17.7016 98.1184 22.3816 106.874 29.2537 113.746C36.1259 120.618 44.8816 125.298 54.4135 127.194C63.9455 129.09 73.8256 128.117 82.8045 124.398C91.7835 120.679 99.4579 114.381 104.857 106.3C109.328 99.6097 112.072 91.9463 112.884 83.9915C113.165 81.2444 115.377 79 118.139 79H123Z" fill="url(#paint1_linear_9_9)"/>
<path d="M68 58.1424C68 51.1933 77.9407 50.0056 79.5779 56.759C80.1079 58.9452 81.8758 60.6441 84.074 61.1213C92.2107 62.8879 91.5506 75 83.2244 75H75.0441C71.1538 75 68 71.8462 68 67.9559V58.1424Z" fill="#626EF4"/>
<path d="M61 58.1424C61 51.1933 51.0593 50.0056 49.4221 56.759C48.8921 58.9452 47.1242 60.6441 44.926 61.1213C36.7893 62.8879 37.4494 75 45.7756 75H53.9559C57.8462 75 61 71.8462 61 67.9559V58.1424Z" fill="#626EF4"/>
<path d="M61 99.8576C61 106.807 51.0593 107.994 49.4221 101.241C48.8921 99.0548 47.1242 97.3559 44.926 96.8787C36.7893 95.1121 37.4494 83 45.7756 83H53.9559C57.8462 83 61 86.1538 61 90.0441V99.8576Z" fill="#626EF4"/>
<path d="M68 99.8576C68 106.807 77.9407 107.994 79.5779 101.241C80.1079 99.0548 81.8758 97.3559 84.074 96.8787C92.2107 95.1121 91.5506 83 83.2244 83H75.0441C71.1538 83 68 86.1538 68 90.0441V99.8576Z" fill="#626EF4"/>
<path d="M192.36 120.44C186.52 120.44 181.2 119.44 176.4 117.44C171.68 115.44 167.92 112.48 165.12 108.56C162.32 104.56 160.84 99.6 160.68 93.68H176.88C177.04 97.6 178.44 100.88 181.08 103.52C183.8 106.16 187.52 107.48 192.24 107.48C196.32 107.48 199.56 106.52 201.96 104.6C204.36 102.68 205.56 100.08 205.56 96.8C205.56 95.12 205.28 93.64 204.72 92.36C204.24 91.08 203.28 89.88 201.84 88.76C200.4 87.64 198.36 86.56 195.72 85.52C193.16 84.4 189.76 83.16 185.52 81.8C180 79.96 175.56 77.84 172.2 75.44C168.84 73.04 166.4 70.36 164.88 67.4C163.44 64.36 162.72 61.08 162.72 57.56C162.72 52.28 163.96 47.88 166.44 44.36C169 40.76 172.4 38.08 176.64 36.32C180.96 34.48 185.72 33.56 190.92 33.56C196.2 33.56 200.96 34.48 205.2 36.32C209.52 38.16 213 40.88 215.64 44.48C218.28 48.08 219.64 52.52 219.72 57.8H203.28C203.2 54.76 202 52.12 199.68 49.88C197.44 47.64 194.32 46.52 190.32 46.52C187.12 46.52 184.4 47.36 182.16 49.04C179.92 50.72 178.8 53.2 178.8 56.48C178.8 58.88 179.68 60.92 181.44 62.6C183.28 64.28 185.72 65.76 188.76 67.04C191.88 68.24 195.32 69.52 199.08 70.88C201.16 71.6 203.48 72.52 206.04 73.64C208.68 74.76 211.2 76.28 213.6 78.2C216 80.04 217.96 82.4 219.48 85.28C221.08 88.08 221.88 91.56 221.88 95.72C221.88 100.84 220.56 105.24 217.92 108.92C215.36 112.6 211.84 115.44 207.36 117.44C202.96 119.44 197.96 120.44 192.36 120.44ZM259.332 120.44C253.092 120.44 247.692 119.08 243.132 116.36C238.652 113.64 235.172 109.92 232.692 105.2C230.212 100.48 228.972 95.16 228.972 89.24C228.972 82.92 230.252 77.44 232.812 72.8C235.372 68.16 238.932 64.56 243.492 62C248.052 59.36 253.332 58.04 259.332 58.04C265.252 58.04 270.412 59.32 274.812 61.88C279.292 64.44 282.772 67.96 285.252 72.44C287.812 76.92 289.092 82.08 289.092 87.92C289.092 88.96 289.052 90 288.972 91.04C288.892 92 288.772 92.92 288.612 93.8H244.452C244.692 96.6 245.412 99.08 246.612 101.24C247.892 103.32 249.572 104.96 251.652 106.16C253.812 107.28 256.252 107.84 258.972 107.84C261.772 107.84 264.172 107.24 266.172 106.04C268.252 104.84 269.892 103 271.092 100.52H287.532C286.412 104.04 284.612 107.32 282.132 110.36C279.652 113.4 276.492 115.84 272.652 117.68C268.892 119.52 264.452 120.44 259.332 120.44ZM244.572 83.6H273.252C273.172 79.6 271.692 76.44 268.812 74.12C266.012 71.8 262.692 70.64 258.852 70.64C255.572 70.64 252.532 71.68 249.732 73.76C246.932 75.76 245.212 79.04 244.572 83.6ZM321.58 120.44C317.1 120.44 312.9 119.64 308.98 118.04C305.06 116.36 301.82 114 299.26 110.96C296.78 107.92 295.42 104.36 295.18 100.28H310.54C310.94 102.84 312.18 104.84 314.26 106.28C316.42 107.72 318.82 108.44 321.46 108.44C323.7 108.44 325.78 107.96 327.7 107C329.7 105.96 330.7 104.36 330.7 102.2C330.7 100.52 329.98 99.2 328.54 98.24C327.1 97.28 325.42 96.52 323.5 95.96C321.58 95.4 319.82 94.92 318.22 94.52C314.22 93.56 310.58 92.44 307.3 91.16C304.02 89.8 301.42 87.96 299.5 85.64C297.58 83.24 296.62 80.08 296.62 76.16C296.62 72.32 297.7 69.04 299.86 66.32C302.1 63.6 305.02 61.56 308.62 60.2C312.3 58.76 316.26 58.04 320.5 58.04C327.14 58.04 332.74 59.72 337.3 63.08C341.86 66.44 344.34 71.4 344.74 77.96H330.22C329.98 75.4 328.9 73.48 326.98 72.2C325.14 70.84 322.82 70.16 320.02 70.16C317.78 70.16 315.78 70.56 314.02 71.36C312.26 72.16 311.38 73.68 311.38 75.92C311.38 77.52 312.1 78.84 313.54 79.88C314.98 80.84 316.7 81.64 318.7 82.28C320.7 82.84 322.46 83.32 323.98 83.72C328.14 84.76 331.78 85.96 334.9 87.32C338.1 88.68 340.62 90.52 342.46 92.84C344.3 95.16 345.26 98.28 345.34 102.2C345.34 106.12 344.22 109.44 341.98 112.16C339.82 114.88 336.94 116.96 333.34 118.4C329.74 119.76 325.82 120.44 321.58 120.44ZM350.936 119L381.656 35H398.936L429.656 119H413.336L406.736 99.92H373.736L367.016 119H350.936ZM378.056 87.56H402.416L390.176 52.64L378.056 87.56ZM439.657 119V35H470.737C476.577 35 481.697 36 486.097 38C490.577 39.92 494.097 42.76 496.657 46.52C499.217 50.28 500.497 54.84 500.497 60.2C500.497 65.56 499.217 70.16 496.657 74C494.097 77.76 490.577 80.64 486.097 82.64C481.697 84.56 476.577 85.52 470.737 85.52H455.017V119H439.657ZM455.017 72.44H470.377C475.737 72.44 479.497 71.32 481.657 69.08C483.817 66.76 484.897 63.8 484.897 60.2C484.897 56.68 483.817 53.8 481.657 51.56C479.497 49.24 475.737 48.08 470.377 48.08H455.017V72.44ZM511.493 119V35H526.853V119H511.493Z" fill="url(#paint2_linear_9_9)"/>
<defs>
<linearGradient id="paint0_linear_9_9" x1="64" y1="15" x2="128" y2="143" gradientUnits="userSpaceOnUse">
<stop stop-color="#626EF4"/>
<stop offset="1" stop-color="#3E4DED"/>
</linearGradient>
<linearGradient id="paint1_linear_9_9" x1="0" y1="15" x2="128" y2="143" gradientUnits="userSpaceOnUse">
<stop stop-color="#626EF4"/>
<stop offset="1" stop-color="#3E4DED"/>
</linearGradient>
<linearGradient id="paint2_linear_9_9" x1="156" y1="0" x2="549" y2="128" gradientUnits="userSpaceOnUse">
<stop stop-color="#626EF4"/>
<stop offset="0.0001" stop-color="#616DF4"/>
<stop offset="0.0002" stop-color="#5663F2"/>
<stop offset="1" stop-color="#3E4DED"/>
</linearGradient>
</defs>
</svg>
