<svg width="48" height="48" viewBox="0 0 48 48" fill="none" xmlns="http://www.w3.org/2000/svg">
<path fill-rule="evenodd" clip-rule="evenodd" d="M11.6154 13C10.5108 13 9.61538 13.8954 9.61538 15V43C9.61538 45.7614 11.854 48 14.6154 48H33.3846C36.146 48 38.3846 45.7614 38.3846 43V15C38.3846 13.8954 37.4892 13 36.3846 13H11.6154ZM18.1538 18C17.0493 18 16.1538 18.8954 16.1538 20V38C16.1538 40.7614 18.3924 43 21.1538 43H26.8462C29.6076 43 31.8462 40.7614 31.8462 38V20C31.8462 18.8954 30.9507 18 29.8462 18H18.1538Z" fill="#626EF4"/>
<rect x="7" y="12" width="34" height="3" rx="1.5" fill="#626EF4"/>
<rect x="21" y="39" width="17" height="6" rx="3" transform="rotate(-90 21 39)" fill="#626EF4"/>
<rect x="15" y="7" width="17" height="4" rx="2" fill="#626EF4"/>
</svg>
